<?xml version="1.0" encoding="UTF-8" standalone="no"?>
<!DOCTYPE svg PUBLIC "-//W3C//DTD SVG 1.1//EN"
 "http://www.w3.org/Graphics/SVG/1.1/DTD/svg11.dtd">
<!-- Generated by graphviz version 2.40.1 (20161225.0304)
 -->
<!-- Title: dependencies Pages: 1 -->
<svg width="504pt" height="284pt"
 viewBox="0.00 0.00 504.00 284.00" xmlns="http://www.w3.org/2000/svg" xmlns:xlink="http://www.w3.org/1999/xlink">
<g id="graph0" class="graph" transform="scale(1 1) rotate(0) translate(4 280)">
<title>dependencies</title>
<polygon fill="#ffffff" stroke="transparent" points="-4,4 -4,-280 500,-280 500,4 -4,4"/>
<text text-anchor="start" x="227.0091" y="-42.4" font-family="sans-serif" font-weight="bold" font-size="14.00" fill="#000000">Legend</text>
<polygon fill="#ffffb3" stroke="transparent" points="14,-10 14,-30 34,-30 34,-10 14,-10"/>
<text text-anchor="start" x="37.629" y="-15.4" font-family="sans-serif" font-size="14.00" fill="#000000"> &#160;Declarations</text>
<polygon fill="#8dd3c7" stroke="transparent" points="127,-10 127,-30 147,-30 147,-10 127,-10"/>
<text text-anchor="start" x="150.7251" y="-15.4" font-family="sans-serif" font-size="14.00" fill="#000000"> &#160;Module</text>
<polygon fill="#80b1d3" stroke="transparent" points="213,-10 213,-30 233,-30 233,-10 213,-10"/>
<text text-anchor="start" x="236.7812" y="-15.4" font-family="sans-serif" font-size="14.00" fill="#000000"> &#160;Bootstrap</text>
<polygon fill="#fdb462" stroke="transparent" points="310,-10 310,-30 330,-30 330,-10 310,-10"/>
<text text-anchor="start" x="333.6732" y="-15.4" font-family="sans-serif" font-size="14.00" fill="#000000"> &#160;Providers</text>
<polygon fill="#fb8072" stroke="transparent" points="406,-10 406,-30 426,-30 426,-10 406,-10"/>
<text text-anchor="start" x="429.7258" y="-15.4" font-family="sans-serif" font-size="14.00" fill="#000000"> &#160;Exports</text>
<g id="clust1" class="cluster">
<title>cluster_PipesModule</title>
<polygon fill="none" stroke="#000000" stroke-dasharray="1,5" points="125,-70 125,-268 371,-268 371,-70 125,-70"/>
</g>
<g id="clust2" class="cluster">
<title>cluster_PipesModule_declarations</title>
<polygon fill="none" stroke="#000000" points="137,-78 137,-130 360,-130 360,-78 137,-78"/>
</g>
<g id="clust6" class="cluster">
<title>cluster_PipesModule_exports</title>
<polygon fill="none" stroke="#000000" points="133,-208 133,-260 363,-260 363,-208 133,-208"/>
</g>
<!-- GetUserName -->
<g id="node1" class="node">
<title>GetUserName</title>
<polygon fill="#ffffb3" stroke="#000000" points="352.0646,-122 255.9354,-122 255.9354,-86 352.0646,-86 352.0646,-122"/>
<text text-anchor="middle" x="304" y="-99.8" font-family="Times,serif" font-size="14.00" fill="#000000">GetUserName</text>
</g>
<!-- PipesModule -->
<g id="node3" class="node">
<title>PipesModule</title>
<polygon fill="#8dd3c7" stroke="#000000" points="236.8823,-187 233.8823,-191 212.8823,-191 209.8823,-187 147.1177,-187 147.1177,-151 236.8823,-151 236.8823,-187"/>
<text text-anchor="middle" x="192" y="-164.8" font-family="Times,serif" font-size="14.00" fill="#000000">PipesModule</text>
</g>
<!-- GetUserName&#45;&gt;PipesModule -->
<g id="edge1" class="edge">
<title>GetUserName&#45;&gt;PipesModule</title>
<path fill="none" stroke="#000000" d="M320.0108,-122.0225C320.0108,-139.3734 320.0108,-163 320.0108,-163 320.0108,-163 247.1318,-163 247.1318,-163"/>
<polygon fill="#000000" stroke="#000000" points="247.1318,-159.5001 237.1318,-163 247.1318,-166.5001 247.1318,-159.5001"/>
</g>
<!-- GetCardRank -->
<g id="node2" class="node">
<title>GetCardRank</title>
<polygon fill="#ffffb3" stroke="#000000" points="237.4748,-122 144.5252,-122 144.5252,-86 237.4748,-86 237.4748,-122"/>
<text text-anchor="middle" x="191" y="-99.8" font-family="Times,serif" font-size="14.00" fill="#000000">GetCardRank</text>
</g>
<!-- GetCardRank&#45;&gt;PipesModule -->
<g id="edge2" class="edge">
<title>GetCardRank&#45;&gt;PipesModule</title>
<path fill="none" stroke="#000000" d="M192,-122.1061C192,-122.1061 192,-140.991 192,-140.991"/>
<polygon fill="#000000" stroke="#000000" points="188.5001,-140.9909 192,-150.991 195.5001,-140.991 188.5001,-140.9909"/>
</g>
<!-- GetUserName  -->
<g id="node4" class="node">
<title>GetUserName </title>
<polygon fill="#fb8072" stroke="#000000" points="354.5655,-252 255.4345,-252 255.4345,-216 354.5655,-216 354.5655,-252"/>
<text text-anchor="middle" x="305" y="-229.8" font-family="Times,serif" font-size="14.00" fill="#000000">GetUserName </text>
</g>
<!-- PipesModule&#45;&gt;GetUserName  -->
<g id="edge3" class="edge">
<title>PipesModule&#45;&gt;GetUserName </title>
<path fill="none" stroke="#000000" stroke-dasharray="5,2" d="M236.9031,-175C261.8853,-175 287.9892,-175 287.9892,-175 287.9892,-175 287.9892,-205.9775 287.9892,-205.9775"/>
<polygon fill="#000000" stroke="#000000" points="284.4893,-205.9774 287.9892,-215.9775 291.4893,-205.9775 284.4893,-205.9774"/>
</g>
<!-- GetCardRank  -->
<g id="node5" class="node">
<title>GetCardRank </title>
<polygon fill="#fb8072" stroke="#000000" points="237.476,-252 140.524,-252 140.524,-216 237.476,-216 237.476,-252"/>
<text text-anchor="middle" x="189" y="-229.8" font-family="Times,serif" font-size="14.00" fill="#000000">GetCardRank </text>
</g>
<!-- PipesModule&#45;&gt;GetCardRank  -->
<g id="edge4" class="edge">
<title>PipesModule&#45;&gt;GetCardRank </title>
<path fill="none" stroke="#000000" stroke-dasharray="5,2" d="M192,-187.1061C192,-187.1061 192,-205.991 192,-205.991"/>
<polygon fill="#000000" stroke="#000000" points="188.5001,-205.9909 192,-215.991 195.5001,-205.991 188.5001,-205.9909"/>
</g>
</g>
</svg>
