<?xml version="1.0" encoding="UTF-8" standalone="no"?>
<!DOCTYPE svg PUBLIC "-//W3C//DTD SVG 1.1//EN"
 "http://www.w3.org/Graphics/SVG/1.1/DTD/svg11.dtd">
<!-- Generated by graphviz version 2.40.1 (20161225.0304)
 -->
<!-- Title: dependencies Pages: 1 -->
<svg width="3338pt" height="284pt"
 viewBox="0.00 0.00 3338.00 284.00" xmlns="http://www.w3.org/2000/svg" xmlns:xlink="http://www.w3.org/1999/xlink">
<g id="graph0" class="graph" transform="scale(1 1) rotate(0) translate(4 280)">
<title>dependencies</title>
<polygon fill="#ffffff" stroke="transparent" points="-4,4 -4,-280 3334,-280 3334,4 -4,4"/>
<text text-anchor="start" x="1644.0091" y="-42.4" font-family="sans-serif" font-weight="bold" font-size="14.00" fill="#000000">Legend</text>
<polygon fill="#ffffb3" stroke="transparent" points="1431,-10 1431,-30 1451,-30 1451,-10 1431,-10"/>
<text text-anchor="start" x="1454.629" y="-15.4" font-family="sans-serif" font-size="14.00" fill="#000000"> &#160;Declarations</text>
<polygon fill="#8dd3c7" stroke="transparent" points="1544,-10 1544,-30 1564,-30 1564,-10 1544,-10"/>
<text text-anchor="start" x="1567.7251" y="-15.4" font-family="sans-serif" font-size="14.00" fill="#000000"> &#160;Module</text>
<polygon fill="#80b1d3" stroke="transparent" points="1630,-10 1630,-30 1650,-30 1650,-10 1630,-10"/>
<text text-anchor="start" x="1653.7812" y="-15.4" font-family="sans-serif" font-size="14.00" fill="#000000"> &#160;Bootstrap</text>
<polygon fill="#fdb462" stroke="transparent" points="1727,-10 1727,-30 1747,-30 1747,-10 1727,-10"/>
<text text-anchor="start" x="1750.6732" y="-15.4" font-family="sans-serif" font-size="14.00" fill="#000000"> &#160;Providers</text>
<polygon fill="#fb8072" stroke="transparent" points="1823,-10 1823,-30 1843,-30 1843,-10 1823,-10"/>
<text text-anchor="start" x="1846.7258" y="-15.4" font-family="sans-serif" font-size="14.00" fill="#000000"> &#160;Exports</text>
<g id="clust1" class="cluster">
<title>cluster_AppModule</title>
<polygon fill="none" stroke="#000000" stroke-dasharray="1,5" points="8,-70 8,-268 3322,-268 3322,-70 8,-70"/>
</g>
<g id="clust2" class="cluster">
<title>cluster_AppModule_declarations</title>
<polygon fill="none" stroke="#000000" points="1783,-78 1783,-130 3314,-130 3314,-78 1783,-78"/>
</g>
<g id="clust14" class="cluster">
<title>cluster_AppModule_imports</title>
<polygon fill="none" stroke="#000000" points="1514,-78 1514,-130 1775,-130 1775,-78 1514,-78"/>
</g>
<g id="clust16" class="cluster">
<title>cluster_AppModule_bootstrap</title>
<polygon fill="none" stroke="#000000" points="1641,-208 1641,-260 1765,-260 1765,-208 1641,-208"/>
</g>
<g id="clust17" class="cluster">
<title>cluster_AppModule_providers</title>
<polygon fill="none" stroke="#000000" points="16,-78 16,-130 1506,-130 1506,-78 16,-78"/>
</g>
<!-- AppComponent -->
<g id="node1" class="node">
<title>AppComponent</title>
<polygon fill="#ffffb3" stroke="#000000" points="3305.9399,-122 3200.0601,-122 3200.0601,-86 3305.9399,-86 3305.9399,-122"/>
<text text-anchor="middle" x="3253" y="-99.8" font-family="Times,serif" font-size="14.00" fill="#000000">AppComponent</text>
</g>
<!-- AppModule -->
<g id="node12" class="node">
<title>AppModule</title>
<polygon fill="#8dd3c7" stroke="#000000" points="1744.6571,-187 1741.6571,-191 1720.6571,-191 1717.6571,-187 1661.3429,-187 1661.3429,-151 1744.6571,-151 1744.6571,-187"/>
<text text-anchor="middle" x="1703" y="-164.8" font-family="Times,serif" font-size="14.00" fill="#000000">AppModule</text>
</g>
<!-- AppComponent&#45;&gt;AppModule -->
<g id="edge1" class="edge">
<title>AppComponent&#45;&gt;AppModule</title>
<path fill="none" stroke="#000000" d="M3253,-122.1532C3253,-145.7566 3253,-184 3253,-184 3253,-184 1754.8598,-184 1754.8598,-184"/>
<polygon fill="#000000" stroke="#000000" points="1754.8598,-180.5001 1744.8598,-184 1754.8598,-187.5001 1754.8598,-180.5001"/>
</g>
<!-- NavbarComponent -->
<g id="node2" class="node">
<title>NavbarComponent</title>
<polygon fill="#ffffb3" stroke="#000000" points="3182.0297,-122 3059.9703,-122 3059.9703,-86 3182.0297,-86 3182.0297,-122"/>
<text text-anchor="middle" x="3121" y="-99.8" font-family="Times,serif" font-size="14.00" fill="#000000">NavbarComponent</text>
</g>
<!-- NavbarComponent&#45;&gt;AppModule -->
<g id="edge2" class="edge">
<title>NavbarComponent&#45;&gt;AppModule</title>
<path fill="none" stroke="#000000" d="M3121,-122.2479C3121,-145.0179 3121,-181 3121,-181 3121,-181 1754.6701,-181 1754.6701,-181"/>
<polygon fill="#000000" stroke="#000000" points="1754.6701,-177.5001 1744.6701,-181 1754.6701,-184.5001 1754.6701,-177.5001"/>
</g>
<!-- LoginComponent -->
<g id="node3" class="node">
<title>LoginComponent</title>
<polygon fill="#ffffb3" stroke="#000000" points="3041.2758,-122 2926.7242,-122 2926.7242,-86 3041.2758,-86 3041.2758,-122"/>
<text text-anchor="middle" x="2984" y="-99.8" font-family="Times,serif" font-size="14.00" fill="#000000">LoginComponent</text>
</g>
<!-- LoginComponent&#45;&gt;AppModule -->
<g id="edge3" class="edge">
<title>LoginComponent&#45;&gt;AppModule</title>
<path fill="none" stroke="#000000" d="M2984,-122.2921C2984,-144.2057 2984,-178 2984,-178 2984,-178 1754.8929,-178 1754.8929,-178"/>
<polygon fill="#000000" stroke="#000000" points="1754.8929,-174.5001 1744.8929,-178 1754.8928,-181.5001 1754.8929,-174.5001"/>
</g>
<!-- RegisterComponent -->
<g id="node4" class="node">
<title>RegisterComponent</title>
<polygon fill="#ffffb3" stroke="#000000" points="2908.9846,-122 2781.0154,-122 2781.0154,-86 2908.9846,-86 2908.9846,-122"/>
<text text-anchor="middle" x="2845" y="-99.8" font-family="Times,serif" font-size="14.00" fill="#000000">RegisterComponent</text>
</g>
<!-- RegisterComponent&#45;&gt;AppModule -->
<g id="edge4" class="edge">
<title>RegisterComponent&#45;&gt;AppModule</title>
<path fill="none" stroke="#000000" d="M2845,-122.2843C2845,-143.3211 2845,-175 2845,-175 2845,-175 1754.6583,-175 1754.6583,-175"/>
<polygon fill="#000000" stroke="#000000" points="1754.6583,-171.5001 1744.6583,-175 1754.6582,-178.5001 1754.6583,-171.5001"/>
</g>
<!-- HomeComponent -->
<g id="node5" class="node">
<title>HomeComponent</title>
<polygon fill="#ffffb3" stroke="#000000" points="2762.5451,-122 2647.4549,-122 2647.4549,-86 2762.5451,-86 2762.5451,-122"/>
<text text-anchor="middle" x="2705" y="-99.8" font-family="Times,serif" font-size="14.00" fill="#000000">HomeComponent</text>
</g>
<!-- HomeComponent&#45;&gt;AppModule -->
<g id="edge5" class="edge">
<title>HomeComponent&#45;&gt;AppModule</title>
<path fill="none" stroke="#000000" d="M2705,-122.2228C2705,-142.3652 2705,-172 2705,-172 2705,-172 1754.779,-172 1754.779,-172"/>
<polygon fill="#000000" stroke="#000000" points="1754.779,-168.5001 1744.779,-172 1754.779,-175.5001 1754.779,-168.5001"/>
</g>
<!-- DashboardComponent -->
<g id="node6" class="node">
<title>DashboardComponent</title>
<polygon fill="#ffffb3" stroke="#000000" points="2628.9734,-122 2487.0266,-122 2487.0266,-86 2628.9734,-86 2628.9734,-122"/>
<text text-anchor="middle" x="2558" y="-99.8" font-family="Times,serif" font-size="14.00" fill="#000000">DashboardComponent</text>
</g>
<!-- DashboardComponent&#45;&gt;AppModule -->
<g id="edge6" class="edge">
<title>DashboardComponent&#45;&gt;AppModule</title>
<path fill="none" stroke="#000000" d="M2558,-122.1061C2558,-141.3391 2558,-169 2558,-169 2558,-169 1754.8172,-169 1754.8172,-169"/>
<polygon fill="#000000" stroke="#000000" points="1754.8172,-165.5001 1744.8172,-169 1754.8172,-172.5001 1754.8172,-165.5001"/>
</g>
<!-- ProfileComponent -->
<g id="node7" class="node">
<title>ProfileComponent</title>
<polygon fill="#ffffb3" stroke="#000000" points="2468.9328,-122 2349.0672,-122 2349.0672,-86 2468.9328,-86 2468.9328,-122"/>
<text text-anchor="middle" x="2409" y="-99.8" font-family="Times,serif" font-size="14.00" fill="#000000">ProfileComponent</text>
</g>
<!-- ProfileComponent&#45;&gt;AppModule -->
<g id="edge7" class="edge">
<title>ProfileComponent&#45;&gt;AppModule</title>
<path fill="none" stroke="#000000" d="M2409,-122.2667C2409,-140.5552 2409,-166 2409,-166 2409,-166 1754.7881,-166 1754.7881,-166"/>
<polygon fill="#000000" stroke="#000000" points="1754.7882,-162.5001 1744.7881,-166 1754.7881,-169.5001 1754.7882,-162.5001"/>
</g>
<!-- TableComponent -->
<g id="node8" class="node">
<title>TableComponent</title>
<polygon fill="#ffffb3" stroke="#000000" points="2331.705,-122 2218.295,-122 2218.295,-86 2331.705,-86 2331.705,-122"/>
<text text-anchor="middle" x="2275" y="-99.8" font-family="Times,serif" font-size="14.00" fill="#000000">TableComponent</text>
</g>
<!-- TableComponent&#45;&gt;AppModule -->
<g id="edge8" class="edge">
<title>TableComponent&#45;&gt;AppModule</title>
<path fill="none" stroke="#000000" d="M2275,-122.0225C2275,-139.3734 2275,-163 2275,-163 2275,-163 1755.0605,-163 1755.0605,-163"/>
<polygon fill="#000000" stroke="#000000" points="1755.0606,-159.5001 1745.0605,-163 1755.0605,-166.5001 1755.0606,-159.5001"/>
</g>
<!-- ChatComponent -->
<g id="node9" class="node">
<title>ChatComponent</title>
<polygon fill="#ffffb3" stroke="#000000" points="2200.7744,-122 2093.2256,-122 2093.2256,-86 2200.7744,-86 2200.7744,-122"/>
<text text-anchor="middle" x="2147" y="-99.8" font-family="Times,serif" font-size="14.00" fill="#000000">ChatComponent</text>
</g>
<!-- ChatComponent&#45;&gt;AppModule -->
<g id="edge9" class="edge">
<title>ChatComponent&#45;&gt;AppModule</title>
<path fill="none" stroke="#000000" d="M2147,-122.027C2147,-138.3976 2147,-160 2147,-160 2147,-160 1754.7704,-160 1754.7704,-160"/>
<polygon fill="#000000" stroke="#000000" points="1754.7705,-156.5001 1744.7704,-160 1754.7704,-163.5001 1754.7705,-156.5001"/>
</g>
<!-- PlaygroundComponent -->
<g id="node10" class="node">
<title>PlaygroundComponent</title>
<polygon fill="#ffffb3" stroke="#000000" points="2074.8808,-122 1929.1192,-122 1929.1192,-86 2074.8808,-86 2074.8808,-122"/>
<text text-anchor="middle" x="2002" y="-99.8" font-family="Times,serif" font-size="14.00" fill="#000000">PlaygroundComponent</text>
</g>
<!-- PlaygroundComponent&#45;&gt;AppModule -->
<g id="edge10" class="edge">
<title>PlaygroundComponent&#45;&gt;AppModule</title>
<path fill="none" stroke="#000000" d="M2002,-122.2396C2002,-137.5706 2002,-157 2002,-157 2002,-157 1754.8895,-157 1754.8895,-157"/>
<polygon fill="#000000" stroke="#000000" points="1754.8895,-153.5001 1744.8895,-157 1754.8895,-160.5001 1754.8895,-153.5001"/>
</g>
<!-- LayoutComponent -->
<g id="node11" class="node">
<title>LayoutComponent</title>
<polygon fill="#ffffb3" stroke="#000000" points="1911.4902,-122 1790.5098,-122 1790.5098,-86 1911.4902,-86 1911.4902,-122"/>
<text text-anchor="middle" x="1851" y="-99.8" font-family="Times,serif" font-size="14.00" fill="#000000">LayoutComponent</text>
</g>
<!-- LayoutComponent&#45;&gt;AppModule -->
<g id="edge11" class="edge">
<title>LayoutComponent&#45;&gt;AppModule</title>
<path fill="none" stroke="#000000" d="M1851,-122.0511C1851,-136.373 1851,-154 1851,-154 1851,-154 1755.015,-154 1755.015,-154"/>
<polygon fill="#000000" stroke="#000000" points="1755.015,-150.5001 1745.015,-154 1755.0149,-157.5001 1755.015,-150.5001"/>
</g>
<!-- AppComponent  -->
<g id="node15" class="node">
<title>AppComponent </title>
<polygon fill="#80b1d3" stroke="#000000" points="1757.439,-252 1648.561,-252 1648.561,-216 1757.439,-216 1757.439,-252"/>
<text text-anchor="middle" x="1703" y="-229.8" font-family="Times,serif" font-size="14.00" fill="#000000">AppComponent </text>
</g>
<!-- AppModule&#45;&gt;AppComponent  -->
<g id="edge14" class="edge">
<title>AppModule&#45;&gt;AppComponent </title>
<path fill="none" stroke="#000000" stroke-dasharray="1,5" d="M1703,-187.1061C1703,-187.1061 1703,-205.991 1703,-205.991"/>
<polygon fill="#000000" stroke="#000000" points="1699.5001,-205.9909 1703,-215.991 1706.5001,-205.991 1699.5001,-205.9909"/>
</g>
<!-- AppRoutingModule -->
<g id="node13" class="node">
<title>AppRoutingModule</title>
<polygon fill="#8dd3c7" stroke="#000000" points="1767.2744,-122 1764.2744,-126 1743.2744,-126 1740.2744,-122 1638.7256,-122 1638.7256,-86 1767.2744,-86 1767.2744,-122"/>
<text text-anchor="middle" x="1703" y="-99.8" font-family="Times,serif" font-size="14.00" fill="#000000">AppRoutingModule</text>
</g>
<!-- AppRoutingModule&#45;&gt;AppModule -->
<g id="edge12" class="edge">
<title>AppRoutingModule&#45;&gt;AppModule</title>
<path fill="none" stroke="#000000" d="M1703,-122.1061C1703,-122.1061 1703,-140.991 1703,-140.991"/>
<polygon fill="#000000" stroke="#000000" points="1699.5001,-140.9909 1703,-150.991 1706.5001,-140.991 1699.5001,-140.9909"/>
</g>
<!-- SharedModule -->
<g id="node14" class="node">
<title>SharedModule</title>
<polygon fill="#8dd3c7" stroke="#000000" points="1620.4231,-122 1617.4231,-126 1596.4231,-126 1593.4231,-122 1521.5769,-122 1521.5769,-86 1620.4231,-86 1620.4231,-122"/>
<text text-anchor="middle" x="1571" y="-99.8" font-family="Times,serif" font-size="14.00" fill="#000000">SharedModule</text>
</g>
<!-- SharedModule&#45;&gt;AppModule -->
<g id="edge13" class="edge">
<title>SharedModule&#45;&gt;AppModule</title>
<path fill="none" stroke="#000000" d="M1571,-122.0511C1571,-136.373 1571,-154 1571,-154 1571,-154 1651.2344,-154 1651.2344,-154"/>
<polygon fill="#000000" stroke="#000000" points="1651.2344,-157.5001 1661.2344,-154 1651.2343,-150.5001 1651.2344,-157.5001"/>
</g>
<!-- AuthGuard -->
<g id="node16" class="node">
<title>AuthGuard</title>
<ellipse fill="#fdb462" stroke="#000000" cx="1444" cy="-104" rx="54.4566" ry="18"/>
<text text-anchor="middle" x="1444" y="-99.8" font-family="Times,serif" font-size="14.00" fill="#000000">AuthGuard</text>
</g>
<!-- AuthGuard&#45;&gt;AppModule -->
<g id="edge15" class="edge">
<title>AuthGuard&#45;&gt;AppModule</title>
<path fill="none" stroke="#000000" d="M1444,-122.2396C1444,-137.5706 1444,-157 1444,-157 1444,-157 1651.0993,-157 1651.0993,-157"/>
<polygon fill="#000000" stroke="#000000" points="1651.0994,-160.5001 1661.0993,-157 1651.0993,-153.5001 1651.0994,-160.5001"/>
</g>
<!-- AuthenticationService -->
<g id="node17" class="node">
<title>AuthenticationService</title>
<ellipse fill="#fdb462" stroke="#000000" cx="1274" cy="-104" rx="97.2683" ry="18"/>
<text text-anchor="middle" x="1274" y="-99.8" font-family="Times,serif" font-size="14.00" fill="#000000">AuthenticationService</text>
</g>
<!-- AuthenticationService&#45;&gt;AppModule -->
<g id="edge16" class="edge">
<title>AuthenticationService&#45;&gt;AppModule</title>
<path fill="none" stroke="#000000" d="M1274,-122.027C1274,-138.3976 1274,-160 1274,-160 1274,-160 1651.0846,-160 1651.0846,-160"/>
<polygon fill="#000000" stroke="#000000" points="1651.0846,-163.5001 1661.0846,-160 1651.0845,-156.5001 1651.0846,-163.5001"/>
</g>
<!-- UserService -->
<g id="node18" class="node">
<title>UserService</title>
<ellipse fill="#fdb462" stroke="#000000" cx="1100" cy="-104" rx="58.4415" ry="18"/>
<text text-anchor="middle" x="1100" y="-99.8" font-family="Times,serif" font-size="14.00" fill="#000000">UserService</text>
</g>
<!-- UserService&#45;&gt;AppModule -->
<g id="edge17" class="edge">
<title>UserService&#45;&gt;AppModule</title>
<path fill="none" stroke="#000000" d="M1100,-122.0225C1100,-139.3734 1100,-163 1100,-163 1100,-163 1651.077,-163 1651.077,-163"/>
<polygon fill="#000000" stroke="#000000" points="1651.077,-166.5001 1661.077,-163 1651.0769,-159.5001 1651.077,-166.5001"/>
</g>
<!-- ValidateService -->
<g id="node19" class="node">
<title>ValidateService</title>
<ellipse fill="#fdb462" stroke="#000000" cx="951" cy="-104" rx="72.9063" ry="18"/>
<text text-anchor="middle" x="951" y="-99.8" font-family="Times,serif" font-size="14.00" fill="#000000">ValidateService</text>
</g>
<!-- ValidateService&#45;&gt;AppModule -->
<g id="edge18" class="edge">
<title>ValidateService&#45;&gt;AppModule</title>
<path fill="none" stroke="#000000" d="M951,-122.2667C951,-140.5552 951,-166 951,-166 951,-166 1651.2283,-166 1651.2283,-166"/>
<polygon fill="#000000" stroke="#000000" points="1651.2284,-169.5001 1661.2283,-166 1651.2283,-162.5001 1651.2284,-169.5001"/>
</g>
<!-- TableService -->
<g id="node20" class="node">
<title>TableService</title>
<ellipse fill="#fdb462" stroke="#000000" cx="798" cy="-104" rx="61.9538" ry="18"/>
<text text-anchor="middle" x="798" y="-99.8" font-family="Times,serif" font-size="14.00" fill="#000000">TableService</text>
</g>
<!-- TableService&#45;&gt;AppModule -->
<g id="edge19" class="edge">
<title>TableService&#45;&gt;AppModule</title>
<path fill="none" stroke="#000000" d="M798,-122.1061C798,-141.3391 798,-169 798,-169 798,-169 1651.165,-169 1651.165,-169"/>
<polygon fill="#000000" stroke="#000000" points="1651.165,-172.5001 1661.165,-169 1651.165,-165.5001 1651.165,-172.5001"/>
</g>
<!-- ChatService -->
<g id="node21" class="node">
<title>ChatService</title>
<ellipse fill="#fdb462" stroke="#000000" cx="660" cy="-104" rx="58.4628" ry="18"/>
<text text-anchor="middle" x="660" y="-99.8" font-family="Times,serif" font-size="14.00" fill="#000000">ChatService</text>
</g>
<!-- ChatService&#45;&gt;AppModule -->
<g id="edge20" class="edge">
<title>ChatService&#45;&gt;AppModule</title>
<path fill="none" stroke="#000000" d="M660,-122.2228C660,-142.3652 660,-172 660,-172 660,-172 1651.146,-172 1651.146,-172"/>
<polygon fill="#000000" stroke="#000000" points="1651.1461,-175.5001 1661.146,-172 1651.146,-168.5001 1651.1461,-175.5001"/>
</g>
<!-- CardService -->
<g id="node22" class="node">
<title>CardService</title>
<ellipse fill="#fdb462" stroke="#000000" cx="525" cy="-104" rx="58.5251" ry="18"/>
<text text-anchor="middle" x="525" y="-99.8" font-family="Times,serif" font-size="14.00" fill="#000000">CardService</text>
</g>
<!-- CardService&#45;&gt;AppModule -->
<g id="edge21" class="edge">
<title>CardService&#45;&gt;AppModule</title>
<path fill="none" stroke="#000000" d="M525,-122.2843C525,-143.3211 525,-175 525,-175 525,-175 1651.0744,-175 1651.0744,-175"/>
<polygon fill="#000000" stroke="#000000" points="1651.0744,-178.5001 1661.0744,-175 1651.0743,-171.5001 1651.0744,-178.5001"/>
</g>
<!-- GameService -->
<g id="node23" class="node">
<title>GameService</title>
<ellipse fill="#fdb462" stroke="#000000" cx="385" cy="-104" rx="63.0977" ry="18"/>
<text text-anchor="middle" x="385" y="-99.8" font-family="Times,serif" font-size="14.00" fill="#000000">GameService</text>
</g>
<!-- GameService&#45;&gt;AppModule -->
<g id="edge22" class="edge">
<title>GameService&#45;&gt;AppModule</title>
<path fill="none" stroke="#000000" d="M385,-122.2921C385,-144.2057 385,-178 385,-178 385,-178 1651.01,-178 1651.01,-178"/>
<polygon fill="#000000" stroke="#000000" points="1651.0101,-181.5001 1661.01,-178 1651.01,-174.5001 1651.0101,-181.5001"/>
</g>
<!-- ResizeProvider -->
<g id="node24" class="node">
<title>ResizeProvider</title>
<ellipse fill="#fdb462" stroke="#000000" cx="234" cy="-104" rx="70.0596" ry="18"/>
<text text-anchor="middle" x="234" y="-99.8" font-family="Times,serif" font-size="14.00" fill="#000000">ResizeProvider</text>
</g>
<!-- ResizeProvider&#45;&gt;AppModule -->
<g id="edge23" class="edge">
<title>ResizeProvider&#45;&gt;AppModule</title>
<path fill="none" stroke="#000000" d="M234,-122.2479C234,-145.0179 234,-181 234,-181 234,-181 1651.0118,-181 1651.0118,-181"/>
<polygon fill="#000000" stroke="#000000" points="1651.0118,-184.5001 1661.0118,-181 1651.0118,-177.5001 1651.0118,-184.5001"/>
</g>
<!-- ChairService -->
<g id="node25" class="node">
<title>ChairService</title>
<ellipse fill="#fdb462" stroke="#000000" cx="85" cy="-104" rx="61.3916" ry="18"/>
<text text-anchor="middle" x="85" y="-99.8" font-family="Times,serif" font-size="14.00" fill="#000000">ChairService</text>
</g>
<!-- ChairService&#45;&gt;AppModule -->
<g id="edge24" class="edge">
<title>ChairService&#45;&gt;AppModule</title>
<path fill="none" stroke="#000000" d="M85,-122.1532C85,-145.7566 85,-184 85,-184 85,-184 1650.9671,-184 1650.9671,-184"/>
<polygon fill="#000000" stroke="#000000" points="1650.9672,-187.5001 1660.9671,-184 1650.9671,-180.5001 1650.9672,-187.5001"/>
</g>
</g>
</svg>
